<svg xmlns="http://www.w3.org/2000/svg" xmlns:xlink="http://www.w3.org/1999/xlink" version="1.1" x="0px" y="0px" viewBox="0 0 100 125" enable-background="new 0 0 100 100" xml:space="preserve"><g><path fill="none" d="M18.247,80.287l6.063,6.291c0.854-0.917,1.551-1.997,2.045-3.191L18.4,80.06   C18.355,80.14,18.304,80.215,18.247,80.287z"/><path fill="none" d="M17.022,80.956v8.79c0.045,0.001,0.086,0.007,0.131,0.007c1.291,0,2.521-0.267,3.656-0.737l-3.464-8.122   C17.241,80.924,17.134,80.945,17.022,80.956z"/><path fill="none" d="M18.547,79.729l7.936,3.321c0.432-1.15,0.678-2.395,0.699-3.699h-8.556   C18.613,79.482,18.587,79.608,18.547,79.729z"/><path fill="none" d="M18.626,78.991h8.555c-0.022-1.275-0.277-2.492-0.722-3.616l-7.911,3.245   C18.587,78.739,18.613,78.862,18.626,78.991z"/><path fill="none" d="M17.767,76.321l2.733-6.818c-0.755-0.287-1.551-0.489-2.378-0.592C17.925,71.401,17.811,73.881,17.767,76.321z   "/><path fill="none" d="M57.754,53.405L57.716,22.79c-4.287,0.175-8.339,1.151-12.025,2.79l11.944,27.87   C57.674,53.434,57.714,53.421,57.754,53.405z"/><path fill="none" d="M57.316,53.624L45.364,25.731c-4.179,1.915-7.879,4.68-10.892,8.106l22.033,20.379   C56.744,53.979,57.022,53.789,57.316,53.624z"/><path fill="none" d="M18.403,78.287l7.921-3.247c-0.514-1.176-1.239-2.239-2.129-3.139l-6.042,6.043   C18.251,78.046,18.332,78.163,18.403,78.287z"/><path fill="none" d="M17.68,80.758l3.463,8.118c1.085-0.498,2.067-1.195,2.913-2.042l-6.06-6.289   C17.898,80.627,17.793,80.698,17.68,80.758z"/><path fill="none" d="M15.404,78.097l-6.181-5.717c-0.687,0.822-1.252,1.755-1.659,2.781l7.649,3.254   C15.265,78.301,15.329,78.195,15.404,78.097z"/><path fill="none" d="M15.916,77.634l-3.359-7.841c-1.181,0.562-2.228,1.35-3.096,2.316l6.187,5.723   C15.731,77.758,15.82,77.691,15.916,77.634z"/><path fill="none" d="M13.042,88.925c1.083,0.464,2.294,0.744,3.619,0.802v-8.771c-0.144-0.015-0.282-0.044-0.414-0.091   L13.042,88.925z"/><path fill="none" d="M16.32,68.85c-1.22,0.062-2.38,0.327-3.439,0.783l3.08,7.189C16,74.081,16.12,71.423,16.32,68.85z"/><path fill="none" d="M15.093,78.754l-7.648-3.253c-0.388,1.084-0.611,2.256-0.631,3.49h8.244   C15.066,78.911,15.075,78.831,15.093,78.754z"/><path fill="none" d="M15.63,80.496l-6.01,5.987c0.853,0.94,1.889,1.729,3.089,2.298l3.21-8.069   C15.816,80.649,15.719,80.578,15.63,80.496z"/><path fill="none" d="M15.058,79.351H6.813c0.022,1.275,0.272,2.556,0.739,3.764l7.559-3.469   C15.085,79.55,15.068,79.452,15.058,79.351z"/><path fill="none" d="M15.241,79.983l-7.547,3.464c0.422,0.994,0.987,1.93,1.692,2.762l6.004-5.98   C15.333,80.152,15.285,80.069,15.241,79.983z"/><path fill="none" d="M17.755,77.626c0.043,0.025,0.086,0.049,0.126,0.077l6.05-6.05c-0.897-0.846-1.939-1.54-3.093-2.025   l-3.081,7.688C17.757,77.419,17.756,77.523,17.755,77.626z"/><path fill="none" d="M61.015,50.596c0-0.304,0.249-0.543,0.57-0.593l9.972-24.885c-3.468-1.366-7.21-2.179-11.122-2.33   l-0.029,30.156l0.782-1.952C61.084,50.885,61.015,50.749,61.015,50.596z"/><path fill="none" d="M59.291,60.521v31.105c0.263,0.005,0.521,0.02,0.786,0.02c4.414,0,8.625-0.919,12.48-2.574L60.291,60.329   C59.974,60.436,59.64,60.504,59.291,60.521z"/><path fill="none" d="M60.631,60.204l12.259,28.73c3.84-1.7,7.31-4.144,10.254-7.153l-21.47-22.284   C61.371,59.79,61.019,60.028,60.631,60.204z"/><path fill="none" d="M65.176,49.982l17.618-17.621c-3.121-3.021-6.814-5.451-10.902-7.11l-9.91,24.731H65.176z"/><path fill="none" d="M56.414,59.358l-2.811,2.8h1.33c0.291-0.406,1.027-1.433,1.798-2.508   C56.621,59.557,56.513,59.463,56.414,59.358z"/><path fill="none" d="M66.368,49.982c0.378,0,0.683,0.273,0.683,0.614c0,0.336-0.305,0.612-0.683,0.612H64.46l-0.663,0.663   c-0.757,1.074-1.363,1.926-1.857,2.616c0.171,0.206,0.32,0.428,0.444,0.668l28.139-11.543c-1.754-4.149-4.309-7.879-7.467-11   l-17.37,17.371H66.368z"/><path fill="none" d="M61.913,59.227l21.486,22.299c3.046-3.178,5.509-6.972,7.203-11.187L62.382,58.531   C62.252,58.782,62.095,59.014,61.913,59.227z"/><path fill="none" d="M62.791,57.02c-0.02,0.416-0.102,0.816-0.25,1.185l28.189,11.792c1.564-4.009,2.438-8.389,2.46-12.978H62.791z   "/><path fill="none" d="M61.505,51.173l-0.914,2.281c0.191,0.084,0.373,0.183,0.545,0.296c0.483-0.675,1.072-1.505,1.803-2.542H61.7   C61.631,51.208,61.568,51.19,61.505,51.173z"/><path fill="none" d="M55.538,55.924L28.232,44.309c-1.424,3.811-2.214,7.968-2.236,12.35h29.432   C55.441,56.406,55.477,56.161,55.538,55.924z"/><path fill="none" d="M55.428,57.02H25.996c0.023,4.487,0.927,9.008,2.627,13.238l26.955-12.375   C55.496,57.606,55.442,57.319,55.428,57.02z"/><path fill="none" d="M56.273,54.493L34.24,34.114c-2.475,2.877-4.472,6.202-5.881,9.858l27.287,11.606   C55.792,55.177,56.006,54.815,56.273,54.493z"/><path fill="none" d="M51.852,62.772c0-0.336,0.306-0.614,0.682-0.614h0.558l3.092-3.08c-0.2-0.261-0.373-0.542-0.499-0.851   L28.757,70.591c1.465,3.543,3.492,6.871,6.041,9.791L52.046,63.2C51.927,63.09,51.852,62.939,51.852,62.772z"/><path fill="none" d="M56.652,61.628c-0.138,0.193-0.264,0.369-0.38,0.53h0.169L56.652,61.628z"/><path fill="none" d="M62.791,56.66h30.4c-0.024-4.494-0.924-8.783-2.534-12.71L62.543,55.48   C62.689,55.848,62.771,56.245,62.791,56.66z"/><path fill="none" d="M57.528,60.405l-0.697,1.753h0.374c0.377,0,0.683,0.278,0.683,0.614c0,0.341-0.306,0.616-0.683,0.616h-0.863   L46.227,88.818c3.775,1.66,8.024,2.658,12.702,2.799V60.521c-0.452-0.022-0.885-0.114-1.281-0.285   C57.608,60.293,57.568,60.349,57.528,60.405z"/><path fill="none" d="M52.534,63.389c-0.05,0-0.094-0.016-0.14-0.026L35.033,80.659c2.96,3.319,6.605,6.088,10.862,8.017   l10.056-25.287H52.534z"/><path d="M60.436,20.982l0.003-2.902c0.023-0.002,0.044-0.005,0.066-0.007l-0.065-0.89v-0.008c0,0,0,0-0.001,0l-0.066-0.899   c-0.001,0-0.002,0-0.002,0c0.141-0.447,0.363-0.847,0.737-1.127c0.873-0.654,2.358-0.609,3.379-0.915   c1.77-0.534,2.479-2.193,2.223-3.896c-0.215-1.43-1.543-2.96-2.896-3.433c-0.565-0.193-1.106-0.28-1.635-0.294   c0.214,0.489,0.382,1.101,0.431,1.835c0.271,0.052,0.542,0.125,0.809,0.252c0.688,0.329,1.183,1.068,1.451,1.755   c0.528,1.351-0.606,2.014-1.759,2.275c-1.327,0.301-3.17,0.454-3.926,1.812c-0.34,0.613-0.538,1.258-0.655,1.92   c-15.613,1.638-27.139,9.108-34.252,22.258c-4.147,7.666-6.761,17.159-7.811,28.321C10.009,67.237,5,72.488,5,79.172   c0,6.089,4.545,12.385,12.154,12.385c6.529,0,11.842-5.557,11.842-12.385c0-6.213-4.689-11.343-10.712-12.059   c2.14-22.47,11.407-45.298,39.427-48.754l0.003,2.625c-18.911,0.73-33.527,16.213-33.527,35.858c0,9.084,3.466,18.188,9.509,24.978   c6.676,7.501,16.045,11.633,26.381,11.633c9.497,0,18.346-3.868,24.916-10.894C91.446,75.654,95,66.523,95,56.841   C95,37.494,79.613,21.683,60.436,20.982z M16.32,68.85c-0.2,2.573-0.32,5.231-0.359,7.973l-3.08-7.189   C13.94,69.177,15.1,68.912,16.32,68.85z M12.557,69.793l3.359,7.841c-0.096,0.058-0.185,0.124-0.268,0.198L9.46,72.109   C10.329,71.142,11.376,70.355,12.557,69.793z M9.223,72.379l6.181,5.717c-0.074,0.099-0.139,0.204-0.191,0.317L7.564,75.16   C7.971,74.134,8.536,73.201,9.223,72.379z M7.445,75.501l7.648,3.253c-0.018,0.077-0.027,0.156-0.035,0.236H6.814   C6.834,77.757,7.057,76.585,7.445,75.501z M6.813,79.351h8.244c0.01,0.101,0.027,0.2,0.053,0.295l-7.559,3.469   C7.086,81.907,6.835,80.626,6.813,79.351z M7.694,83.446l7.547-3.464c0.044,0.086,0.092,0.169,0.148,0.247l-6.004,5.98   C8.681,85.376,8.116,84.441,7.694,83.446z M9.62,86.483l6.01-5.987c0.089,0.081,0.186,0.153,0.289,0.215l-3.21,8.069   C11.509,88.212,10.473,87.423,9.62,86.483z M16.662,89.727c-1.325-0.058-2.536-0.338-3.619-0.802l3.205-8.06   c0.132,0.047,0.271,0.076,0.414,0.091V89.727z M17.154,89.753c-0.045,0-0.087-0.006-0.131-0.007v-8.79   c0.111-0.011,0.219-0.031,0.323-0.062l3.464,8.122C19.675,89.485,18.444,89.753,17.154,89.753z M21.143,88.876l-3.463-8.118   c0.113-0.06,0.219-0.131,0.316-0.213l6.06,6.289C23.21,87.681,22.228,88.378,21.143,88.876z M24.31,86.578l-6.063-6.291   c0.057-0.072,0.108-0.147,0.153-0.226l7.954,3.326C25.86,84.581,25.164,85.661,24.31,86.578z M26.483,83.05l-7.936-3.321   c0.04-0.121,0.066-0.248,0.079-0.379h8.556C27.161,80.655,26.914,81.9,26.483,83.05z M27.181,78.991h-8.555   c-0.013-0.128-0.038-0.252-0.077-0.371l7.911-3.245C26.905,76.498,27.159,77.716,27.181,78.991z M26.324,75.04l-7.921,3.247   c-0.071-0.124-0.152-0.241-0.249-0.344l6.042-6.043C25.086,72.801,25.81,73.864,26.324,75.04z M23.932,71.653l-6.05,6.05   c-0.04-0.029-0.083-0.052-0.126-0.077c0.001-0.103,0.002-0.207,0.003-0.31l3.081-7.688C21.993,70.113,23.034,70.807,23.932,71.653z    M20.5,69.504l-2.733,6.818c0.044-2.441,0.158-4.92,0.354-7.41C18.949,69.014,19.744,69.217,20.5,69.504z M57.716,22.79   l0.038,30.615c-0.04,0.016-0.08,0.028-0.119,0.045l-11.944-27.87C49.377,23.941,53.429,22.965,57.716,22.79z M45.364,25.731   l11.952,27.893c-0.295,0.165-0.573,0.356-0.811,0.592L34.472,33.837C37.485,30.411,41.185,27.646,45.364,25.731z M54.933,62.158   h-1.33l2.811-2.8c0.099,0.106,0.207,0.199,0.317,0.293C55.961,60.725,55.224,61.753,54.933,62.158z M56.652,61.628l-0.211,0.53   h-0.169C56.388,61.997,56.513,61.821,56.652,61.628z M34.24,34.114l22.034,20.379c-0.267,0.322-0.481,0.685-0.627,1.085   L28.359,43.972C29.768,40.316,31.765,36.991,34.24,34.114z M28.232,44.309l27.307,11.614c-0.061,0.237-0.098,0.483-0.11,0.736   H25.996C26.017,52.278,26.808,48.12,28.232,44.309z M25.996,57.02h29.432c0.015,0.299,0.068,0.586,0.15,0.863L28.623,70.257   C26.923,66.027,26.019,61.507,25.996,57.02z M34.798,80.382c-2.549-2.92-4.577-6.247-6.041-9.791l26.928-12.364   c0.126,0.309,0.299,0.59,0.499,0.851l-3.092,3.08h-0.558c-0.376,0-0.682,0.278-0.682,0.614c0,0.167,0.075,0.317,0.194,0.428   L34.798,80.382z M35.033,80.659l17.361-17.295c0.047,0.009,0.091,0.026,0.14,0.026h3.417L45.895,88.676   C41.638,86.746,37.994,83.978,35.033,80.659z M58.93,91.617c-4.678-0.142-8.928-1.139-12.702-2.799l10.114-25.429h0.863   c0.377,0,0.683-0.275,0.683-0.616c0-0.336-0.306-0.614-0.683-0.614H56.83l0.697-1.753c0.04-0.056,0.081-0.112,0.121-0.169   c0.395,0.171,0.829,0.263,1.281,0.285V91.617z M93.191,56.66h-30.4c-0.02-0.414-0.102-0.812-0.248-1.179l28.114-11.53   C92.267,47.876,93.167,52.165,93.191,56.66z M90.523,43.612L62.385,55.155c-0.124-0.24-0.272-0.463-0.444-0.668   c0.494-0.69,1.1-1.542,1.857-2.616l0.663-0.663h1.907c0.378,0,0.683-0.275,0.683-0.612c0-0.341-0.305-0.614-0.683-0.614h-0.681   l17.37-17.371C86.214,35.733,88.769,39.463,90.523,43.612z M61.137,53.75c-0.172-0.113-0.355-0.213-0.545-0.296l0.914-2.281   c0.063,0.017,0.125,0.035,0.194,0.035h1.24C62.209,52.245,61.62,53.075,61.137,53.75z M82.794,32.362L65.176,49.982h-3.193   l9.91-24.731C75.98,26.911,79.673,29.341,82.794,32.362z M60.435,22.789c3.911,0.15,7.653,0.964,11.122,2.33l-9.972,24.885   c-0.321,0.05-0.57,0.289-0.57,0.593c0,0.153,0.069,0.289,0.173,0.396l-0.782,1.952L60.435,22.789z M60.077,91.647   c-0.265,0-0.523-0.015-0.786-0.02V60.521c0.349-0.017,0.683-0.085,1-0.193l12.265,28.744C68.702,90.727,64.49,91.647,60.077,91.647   z M72.89,88.934l-12.259-28.73c0.388-0.176,0.74-0.414,1.043-0.706l21.47,22.284C80.199,84.791,76.73,87.235,72.89,88.934z    M83.399,81.526L61.913,59.227c0.182-0.213,0.338-0.445,0.469-0.696l28.221,11.808C88.909,74.554,86.445,78.347,83.399,81.526z    M62.542,58.205c0.147-0.369,0.229-0.769,0.25-1.185h30.4c-0.022,4.589-0.896,8.968-2.46,12.978L62.542,58.205z"/><path d="M25.726,24.033c0,0,4.019,1.188,7.614,1.028c4.209-3.572,9.116-6.204,14.706-7.889c-0.115-0.762-1.135-1.522-5.539-0.513   C20.396,21.72,25.726,24.033,25.726,24.033z"/><path d="M56.514,10.04c1.797-0.358,3.709-1.631,5.568-1.494c-0.046-0.845-0.266-1.506-0.521-1.998   c-1.862,0.132-3.591,1.115-5.546,1.508C54.827,8.295,55.333,10.276,56.514,10.04z"/></g><text x="0" y="115" fill="#000000" font-size="5px" font-weight="bold" font-family="'Helvetica Neue', Helvetica, Arial-Unicode, Arial, Sans-serif">Created by Vladimir Belochkin</text><text x="0" y="120" fill="#000000" font-size="5px" font-weight="bold" font-family="'Helvetica Neue', Helvetica, Arial-Unicode, Arial, Sans-serif">from the Noun Project</text></svg>